<?xml version="1.0" standalone="no"?>
<!DOCTYPE svg PUBLIC "-//W3C//DTD SVG 20010904//EN"
 "http://www.w3.org/TR/2001/REC-SVG-20010904/DTD/svg10.dtd">
<svg version="1.0" xmlns="http://www.w3.org/2000/svg"
 width="626.000000pt" height="625.000000pt" viewBox="0 0 626.000000 625.000000"
 preserveAspectRatio="xMidYMid meet">

<g transform="translate(0.000000,625.000000) scale(0.100000,-0.100000)"
fill="#000000" stroke="none">
<path d="M2940 6130 c-519 -33 -1040 -213 -1470 -508 -539 -369 -945 -912
-1143 -1528 -308 -957 -115 -1992 517 -2774 99 -123 303 -326 432 -430 440
-355 957 -572 1524 -642 136 -17 534 -17 670 0 997 123 1843 709 2293 1590
224 437 320 844 321 1347 0 323 -33 555 -119 846 -102 345 -298 718 -531 1009
-96 120 -330 353 -454 450 -487 386 -1045 600 -1668 640 -162 11 -202 10 -372
0z m604 -210 c1135 -172 2047 -1025 2295 -2145 47 -212 56 -308 56 -590 0
-210 -4 -296 -18 -385 -96 -618 -353 -1133 -777 -1561 -430 -433 -945 -695
-1565 -794 -158 -26 -528 -31 -705 -11 -450 52 -838 193 -1215 440 -538 353
-946 900 -1130 1515 -127 425 -149 908 -61 1344 180 887 792 1638 1626 1995
264 113 561 187 870 216 117 11 489 -3 624 -24z"/>
<path d="M2840 5819 c-625 -76 -1175 -347 -1605 -790 -202 -208 -352 -420
-475 -674 -97 -198 -141 -315 -190 -509 -58 -228 -72 -331 -77 -594 -6 -264 4
-386 47 -602 166 -827 737 -1541 1507 -1885 836 -372 1800 -293 2553 210 169
113 274 198 410 335 335 334 572 746 688 1195 240 923 -20 1885 -688 2554
-262 261 -620 490 -964 616 -126 46 -368 108 -511 131 -127 20 -572 28 -695
13z m592 -94 c564 -66 1074 -308 1482 -705 426 -414 682 -923 761 -1515 32
-237 19 -585 -31 -835 -151 -752 -656 -1414 -1347 -1766 -372 -190 -735 -276
-1157 -277 -421 0 -779 84 -1150 269 -726 363 -1235 1049 -1377 1854 -31 178
-43 512 -24 692 63 596 315 1124 740 1548 211 211 415 359 671 485 255 127
536 213 795 244 50 6 101 13 115 15 71 10 409 4 522 -9z"/>
<path d="M2840 5676 c-457 -59 -856 -220 -1227 -497 -126 -95 -378 -347 -471
-471 -256 -343 -413 -706 -483 -1118 -30 -177 -37 -505 -15 -694 86 -743 490
-1398 1116 -1811 730 -481 1677 -543 2465 -161 734 355 1242 1029 1385 1837
31 174 39 550 16 729 -23 173 -51 302 -97 447 -124 388 -314 705 -594 992
-386 396 -849 638 -1399 732 -156 27 -539 35 -696 15z m504 -221 c31 -52 77
-134 101 -182 44 -90 108 -243 103 -248 -2 -2 -27 2 -57 7 l-54 11 -33 73 -33
72 -53 7 c-29 3 -96 5 -148 3 l-95 -3 -39 -67 c-31 -55 -43 -68 -63 -68 l-25
0 38 68 c78 141 273 420 294 422 3 0 32 -43 64 -95z m-545 14 c39 -14 35 -35
-5 -32 -16 2 -61 6 -100 9 -120 11 -227 -36 -270 -117 -22 -43 -18 -128 9
-180 29 -55 101 -105 163 -115 53 -8 155 16 193 45 23 17 23 20 13 81 -7 35
-14 65 -16 68 -3 2 -36 -2 -73 -9 -86 -17 -88 -17 -88 1 0 15 111 42 227 56
l57 6 6 -33 c3 -19 7 -59 8 -89 l2 -55 -80 -40 c-244 -121 -480 -102 -555 45
-90 176 112 367 391 369 47 1 100 -4 118 -10z m1026 -34 c195 -59 286 -117
339 -215 24 -44 28 -60 24 -110 -8 -115 -96 -180 -245 -180 -67 0 -103 7 -209
40 -71 22 -134 40 -141 40 -7 0 -13 3 -13 8 -1 4 23 107 52 230 33 138 57 222
65 222 6 0 64 -16 128 -35z m-1735 -400 c56 -99 104 -181 105 -182 0 -2 43 19
93 44 71 36 95 44 104 35 15 -15 20 -11 -97 -70 -55 -28 -118 -62 -141 -76
l-41 -25 -127 189 c-69 105 -126 194 -126 199 0 13 114 81 121 73 3 -4 52 -88
109 -187z m2436 41 c243 -111 366 -384 234 -516 -104 -104 -294 -65 -453 94
-40 39 -83 93 -96 121 -26 53 -38 132 -27 189 9 45 71 113 121 132 55 20 153
11 221 -20z m-2824 -76 c-53 -43 -110 -92 -127 -109 l-29 -32 60 -60 61 -61
54 49 c120 109 179 147 179 115 0 -4 -40 -41 -90 -81 -140 -115 -135 -100 -56
-180 l69 -69 100 84 c92 78 122 94 122 67 0 -5 -27 -31 -60 -58 -33 -26 -97
-84 -142 -128 l-81 -80 -169 154 c-92 84 -169 158 -171 164 -4 15 161 174 267
258 63 49 88 64 97 56 10 -8 -11 -30 -84 -89z m1571 -40 c828 -69 1493 -683
1623 -1497 l18 -112 232 -3 c218 -3 234 -4 261 -24 104 -77 98 -236 -10 -288
-29 -13 -72 -16 -260 -16 l-225 0 -7 -57 c-11 -98 -55 -283 -91 -381 -212
-586 -715 -1021 -1326 -1146 -466 -95 -947 2 -1349 273 -200 134 -348 283
-484 486 -436 650 -395 1507 102 2118 150 183 391 373 608 478 186 89 413 152
615 168 137 12 162 12 293 1z m-1738 -395 c71 -53 93 -161 60 -284 -16 -60
-164 -363 -176 -359 -124 47 -419 176 -419 184 0 20 118 253 159 313 38 56 86
104 136 137 79 52 180 56 240 9z m3472 -17 c88 -53 185 -209 205 -329 12 -71
7 -102 -15 -93 -10 3 -16 27 -19 73 -6 84 -41 163 -98 225 -30 33 -50 46 -69
46 -61 0 -64 -36 -17 -158 60 -155 70 -220 41 -288 -17 -42 -68 -67 -117 -57
-50 9 -154 120 -202 215 -34 67 -40 90 -44 159 -4 67 -2 81 9 77 9 -3 17 -28
21 -69 12 -106 56 -200 118 -252 37 -32 59 -34 91 -8 35 28 29 86 -21 207 -49
117 -62 200 -36 239 32 48 88 53 153 13z m-3927 -863 c34 -17 44 -54 35 -119
-10 -64 -52 -125 -132 -189 -125 -101 -153 -144 -153 -242 0 -30 -3 -55 -6
-55 -22 0 -78 48 -100 86 -108 185 70 534 274 534 29 0 66 -7 82 -15z m147
-33 c22 -14 33 -62 33 -140 0 -287 -103 -433 -321 -458 l-56 -6 -12 32 c-16
47 -14 106 5 147 9 19 51 64 92 101 42 37 91 83 109 102 33 34 63 110 63 157
0 26 41 73 62 73 7 0 18 -4 25 -8z m-182 -846 c132 -61 289 -343 302 -541 5
-71 4 -78 -10 -65 -8 8 -20 50 -26 93 -33 230 -173 384 -314 346 -93 -25 -140
-94 -141 -204 0 -114 72 -269 161 -345 38 -33 62 -80 41 -80 -21 0 -135 128
-165 185 -105 201 -123 444 -41 565 26 37 81 70 118 70 14 0 48 -11 75 -24z
m4206 -6 c33 -18 49 -64 49 -140 l0 -72 38 23 c20 12 75 50 121 83 45 34 91
67 101 74 17 12 17 10 4 -55 -30 -142 -29 -140 -102 -187 -60 -39 -244 -136
-257 -136 -3 0 6 30 20 66 33 88 33 147 0 179 -34 35 -70 32 -109 -7 -29 -29
-68 -111 -78 -162 -2 -15 30 -32 182 -96 102 -43 191 -82 199 -87 10 -7 7 -23
-20 -83 -18 -41 -34 -76 -35 -78 -1 -2 -97 44 -212 102 l-211 106 25 54 c14
31 45 110 69 177 75 206 141 279 216 239z m-3779 -757 c104 -56 238 -204 289
-319 16 -35 22 -70 23 -125 1 -67 -2 -80 -27 -118 -58 -87 -181 -105 -305 -45
-83 40 -219 179 -261 266 -74 156 -63 282 31 351 57 42 161 38 250 -10z m3822
-56 c-40 -70 -39 -70 -152 -83 l-63 -7 -54 -72 c-29 -40 -81 -105 -115 -145
l-62 -72 7 -92 c6 -91 6 -93 -18 -109 l-24 -16 -7 106 c-8 119 -36 295 -66
413 -11 43 -20 81 -20 84 0 3 43 6 95 6 120 0 268 16 404 44 58 12 107 19 109
15 2 -4 -14 -37 -34 -72z m-721 -348 c24 -30 21 -70 -8 -113 -32 -47 -31 -50
6 -31 16 9 51 19 77 22 129 15 137 -123 15 -245 -26 -26 -80 -68 -119 -94 -82
-54 -255 -151 -260 -146 -1 2 -51 96 -109 208 -77 151 -102 207 -93 213 7 4
63 37 123 73 61 37 129 78 153 92 95 54 180 63 215 21z m-2382 -172 c46 -24
90 -46 98 -49 9 -2 12 -11 8 -21 -6 -15 -17 -12 -94 27 -49 25 -107 57 -130
71 l-43 26 -46 -71 c-35 -54 -43 -74 -35 -84 6 -8 63 -40 126 -72 63 -33 115
-65 115 -73 0 -22 -45 -5 -162 60 -58 32 -109 59 -111 59 -3 0 -33 -43 -67
-95 l-61 -95 -47 31 c-91 62 -97 38 59 249 l140 189 83 -54 c45 -30 120 -74
167 -98z m272 -116 c73 -25 192 -57 285 -77 12 -2 22 -11 22 -20 0 -19 -36
-14 -187 26 l-102 27 -27 -79 c-14 -44 -24 -82 -21 -85 5 -4 179 -52 250 -67
27 -6 39 -36 15 -36 -11 0 -200 47 -264 66 -20 5 -25 -3 -54 -93 -18 -54 -36
-102 -40 -107 -5 -4 -32 0 -62 9 -96 32 -96 11 -4 232 45 109 85 206 89 216 3
9 8 17 10 17 2 0 42 -13 90 -29z m1284 -48 c5 -13 -31 -24 -174 -55 -116 -24
-111 -16 -92 -126 l11 -64 47 6 c25 3 90 17 144 30 83 20 99 21 104 9 3 -7 4
-15 2 -17 -7 -7 -235 -56 -257 -56 -12 0 -24 -4 -27 -10 -7 -12 15 -172 26
-184 9 -10 138 13 258 45 59 16 76 17 82 7 5 -7 3 -15 -4 -19 -48 -26 -469
-101 -483 -86 -5 5 -32 248 -46 421 l-3 40 120 17 c66 9 154 26 195 37 80 21
92 22 97 5z m-674 -60 c148 -5 187 -9 187 -19 0 -11 -29 -14 -144 -14 l-145 0
-5 -42 c-16 -132 -17 -125 16 -132 17 -3 84 -6 149 -6 101 0 119 -2 119 -16 0
-13 -20 -15 -149 -12 l-150 3 -6 -65 c-3 -36 -7 -79 -9 -96 -4 -29 -1 -32 26
-38 17 -3 95 -6 174 -6 121 0 144 -2 144 -15 0 -13 -23 -15 -150 -15 -135 0
-338 15 -349 26 -5 5 59 445 66 457 3 5 12 5 22 2 9 -4 100 -10 204 -12z"/>
<path d="M3177 5348 c-24 -35 -52 -75 -61 -90 l-18 -27 125 -3 c144 -3 137
-16 60 110 -25 39 -49 72 -54 72 -4 0 -28 -28 -52 -62z"/>
<path d="M3817 5403 c-16 -28 -117 -387 -110 -393 12 -12 112 -40 141 -40 77
0 170 62 203 134 38 83 15 178 -55 231 -48 36 -170 83 -179 68z"/>
<path d="M4404 5011 c-66 -30 -123 -120 -124 -196 -1 -119 99 -219 220 -219
89 0 170 54 204 136 23 53 20 97 -10 156 -58 117 -185 171 -290 123z"/>
<path d="M2950 4660 c-342 -47 -637 -194 -875 -435 -199 -201 -337 -459 -400
-745 -26 -117 -31 -391 -11 -523 97 -613 551 -1093 1164 -1229 134 -30 463
-33 592 -4 193 42 388 123 535 221 339 229 568 577 642 978 24 128 24 400 0
522 -44 222 -146 458 -271 625 -83 111 -249 270 -356 341 -166 110 -353 190
-538 229 -111 24 -376 35 -482 20z m219 -281 c22 -52 30 -49 63 25 21 47 41
54 92 29 135 -66 156 -255 60 -546 -14 -43 -24 -80 -21 -83 2 -2 16 0 31 6 42
16 54 12 71 -20 20 -39 19 -103 -2 -148 -10 -21 -53 -73 -95 -118 -43 -45 -78
-84 -78 -87 0 -4 34 16 76 43 89 58 120 63 135 23 15 -39 5 -89 -28 -136 -31
-44 -160 -157 -176 -154 -18 4 -77 -83 -77 -115 0 -30 0 -30 38 20 66 88 283
255 304 234 6 -6 16 -8 23 -6 16 6 30 -65 20 -97 -10 -31 11 -15 32 24 13 24
19 67 23 170 l5 139 32 28 c43 39 125 50 189 25 337 -128 502 -816 298 -1243
-41 -84 -169 -222 -269 -289 -143 -96 -346 -177 -525 -210 -141 -26 -383 -23
-517 5 -432 93 -733 364 -839 755 -53 196 -41 356 38 517 106 214 381 390 457
293 12 -14 24 -38 28 -51 7 -30 -15 -77 -37 -78 -27 -2 -55 -18 -73 -41 -11
-13 -35 -32 -55 -43 -21 -10 -30 -19 -21 -20 8 0 20 5 26 11 31 31 44 -31 18
-81 -15 -30 -15 -30 14 -30 23 0 32 -6 39 -27 l10 -28 1 35 c1 45 47 143 63
137 7 -2 18 3 24 12 16 20 35 4 63 -52 l21 -42 0 60 c0 61 34 152 54 146 5 -2
13 3 18 11 9 15 -2 27 157 -161 92 -108 155 -170 200 -196 19 -11 8 8 -41 66
-21 26 -53 54 -72 63 -38 18 -113 101 -141 156 -10 19 -18 51 -18 71 0 43 35
106 59 106 8 0 30 -18 47 -40 71 -87 79 -94 48 -41 -68 113 -76 174 -25 174
38 0 100 -36 130 -75 15 -20 29 -33 31 -31 12 12 -24 84 -79 158 -100 135
-130 212 -96 246 17 17 73 15 88 -3 7 -9 15 -14 17 -12 2 2 -11 58 -28 123
-32 124 -47 255 -35 318 8 40 54 99 100 127 27 16 32 16 59 3 17 -9 36 -32 46
-55z"/>
<path d="M2424 3374 c-22 -8 -56 -28 -75 -45 l-34 -30 40 19 c22 11 57 22 78
26 20 4 37 9 37 11 0 2 3 10 6 19 7 19 2 19 -52 0z"/>
<path d="M3478 3076 c-158 -139 -247 -225 -171 -166 170 133 364 310 340 310
-3 0 -79 -65 -169 -144z"/>
<path d="M3670 3191 c0 -17 18 -21 24 -6 3 9 0 15 -9 15 -8 0 -15 -4 -15 -9z"/>
<path d="M2655 3135 c9 -44 47 -104 101 -158 44 -45 234 -187 249 -187 4 0
-37 37 -91 82 -130 108 -216 195 -243 249 -18 37 -21 39 -16 14z"/>
<path d="M4062 2866 c-3 -42 -59 -202 -94 -269 -40 -74 -144 -186 -221 -239
-75 -51 -244 -130 -362 -171 -130 -44 -271 -49 -408 -13 -108 28 -253 93 -343
153 -33 22 -74 45 -93 51 -98 34 -243 171 -291 276 -16 33 -29 54 -29 45 -1
-10 19 -57 44 -106 49 -98 132 -198 218 -260 29 -20 56 -44 61 -51 4 -8 50
-34 102 -59 262 -124 611 -147 889 -59 178 57 380 242 470 431 39 81 68 205
62 261 -3 29 -4 31 -5 10z"/>
<path d="M3294 2590 c-11 -4 -33 -25 -49 -46 l-30 -39 41 32 c37 29 72 64 63
62 -2 0 -13 -4 -25 -9z"/>
<path d="M3335 2534 c-114 -42 -145 -61 -145 -91 0 -22 61 -15 117 14 43 21
170 123 153 122 -3 0 -59 -21 -125 -45z"/>
<path d="M2871 2565 c24 -23 259 -161 259 -151 0 20 -62 74 -110 95 -72 32
-156 63 -149 56z"/>
<path d="M1264 4466 c-47 -21 -102 -83 -140 -158 l-34 -68 180 -90 c99 -49
184 -90 188 -90 5 0 25 35 45 78 46 98 49 154 11 231 -48 96 -156 138 -250 97z"/>
<path d="M1395 1961 c-141 -35 -202 -170 -135 -301 47 -92 143 -160 224 -160
48 0 112 28 143 61 40 44 66 117 60 170 -17 142 -167 260 -292 230z"/>
<path d="M4878 1883 c-43 -2 -78 -8 -78 -12 0 -15 40 -204 44 -208 6 -6 154
171 180 215 5 9 -3 11 -31 10 -21 -1 -73 -4 -115 -5z"/>
<path d="M4335 1563 c-23 -12 -113 -65 -133 -79 -2 -1 16 -36 40 -78 l44 -75
67 41 c86 52 127 98 127 142 0 19 -8 40 -18 49 -23 21 -87 21 -127 0z"/>
<path d="M4481 1409 c-36 -14 -171 -101 -171 -110 0 -4 22 -44 48 -87 54 -91
41 -90 153 -16 107 70 148 155 99 204 -22 22 -86 26 -129 9z"/>
</g>
</svg>
